<svg width="154" height="48" viewBox="0 0 154 48" fill="none" xmlns="http://www.w3.org/2000/svg">
<g clip-path="url(#clip0_3003_220)">
<path d="M55.1214 11.5021C55.1214 11.2274 55.2936 10.9699 55.6552 10.7296C56.0168 10.4892 56.499 10.2489 57.1017 10.0429C57.7044 9.83689 58.4104 9.66521 59.2025 9.54504C59.9947 9.42487 60.8212 9.3562 61.6822 9.3562C62.8877 9.3562 63.9553 9.51071 64.9196 9.81972C65.884 10.1287 66.6933 10.5751 67.3649 11.1416C68.0365 11.7081 68.5531 12.3948 68.9147 13.1845C69.2763 13.9742 69.4658 14.8669 69.4658 15.8283C69.4658 16.8583 69.2936 17.7682 68.9664 18.5579C68.6392 19.3476 68.157 20 67.5543 20.515C66.9516 21.03 66.2111 21.4249 65.3501 21.6996C64.4891 21.9742 63.5248 22.0944 62.4744 22.0944C62.1988 22.0944 61.9233 22.0772 61.6478 22.0429C61.3723 22.0086 61.0968 21.9571 60.8385 21.9056C60.5802 21.8541 60.3563 21.8026 60.1669 21.7511C59.9774 21.6996 59.8225 21.648 59.7364 21.6137C59.7191 21.6309 59.6847 21.6652 59.6675 21.7167C59.6503 21.7682 59.633 21.8197 59.633 21.8884C59.633 21.9742 59.6675 22.0601 59.7536 22.1459C59.8397 22.2317 59.9602 22.3004 60.1669 22.3691C60.3735 22.4377 60.6146 22.4893 60.9418 22.5408C61.269 22.5923 61.6822 22.6438 62.1816 22.6609V24.515C61.9922 24.6695 61.7511 24.824 61.4756 24.9442C61.2001 25.0644 60.9073 25.1845 60.6146 25.2704C60.3218 25.3562 59.9774 25.4249 59.6503 25.4764C59.3231 25.5279 58.9787 25.545 58.6515 25.545C58.1865 25.545 57.7388 25.4935 57.3083 25.4077C56.8778 25.3219 56.499 25.1674 56.1718 24.9614C55.8446 24.7553 55.5863 24.4978 55.3797 24.1888C55.173 23.8798 55.0869 23.485 55.0869 23.0386V11.5365L55.1214 11.5021ZM61.9233 17.1674C61.9233 17.1674 61.9922 17.2017 62.0439 17.2017C62.0955 17.2017 62.13 17.2017 62.1472 17.2017C62.3366 17.2017 62.4744 17.133 62.5605 17.0129C62.6466 16.8927 62.681 16.6867 62.681 16.412V15.485C62.681 15.2103 62.6466 15.0043 62.5777 14.8669C62.5088 14.7296 62.3883 14.6781 62.1988 14.6781C62.1644 14.6781 62.1127 14.6781 62.0611 14.6781C62.0094 14.6781 61.9578 14.6953 61.9233 14.7124C61.9233 14.7811 61.9233 14.8498 61.9233 14.9184V17.133V17.1674Z" fill="url(#paint0_linear_3003_220)"/>
<path d="M77.8528 24.8068C77.7495 24.8927 77.6462 24.9785 77.5084 25.0472C77.3707 25.1159 77.2157 25.2017 77.0262 25.2704C76.8368 25.339 76.613 25.3905 76.3719 25.442C76.1308 25.4935 75.8208 25.5107 75.4937 25.5107C75.132 25.5107 74.7532 25.4764 74.3571 25.4077C73.9611 25.339 73.5822 25.236 73.2206 25.0815C72.859 24.927 72.4973 24.7038 72.1702 24.4463C71.843 24.1888 71.5502 23.8455 71.3092 23.4506C71.0681 23.0558 70.8614 22.5751 70.7237 22.0257C70.5859 21.4764 70.4998 20.8412 70.4998 20.1201V17.0815C70.3276 16.7897 70.1898 16.4292 70.0693 16.0515C69.9488 15.6738 69.8799 15.2103 69.8799 14.7124C69.8799 14.4892 69.8799 14.2661 69.9143 14.0257C69.9488 13.7854 69.9832 13.5622 70.0349 13.3219C70.0865 13.0815 70.1726 12.8755 70.2587 12.6523C70.3448 12.4292 70.4654 12.2403 70.5859 12.0515H73.255C73.72 12.0515 74.1505 12.103 74.5465 12.2232C74.9426 12.3433 75.287 12.4978 75.5625 12.7382C75.8381 12.9785 76.0619 13.2704 76.2169 13.6309C76.3719 13.9914 76.458 14.4206 76.458 14.9184V18.8498C76.458 19.2961 76.4924 19.6051 76.5785 19.7768C76.6646 19.9485 76.7679 20.0171 76.9057 20.0171C76.9918 20.0171 77.0435 20.0171 77.0951 19.9828C77.1468 19.9485 77.1812 19.9313 77.2157 19.897C77.1812 19.7596 77.1468 19.588 77.1296 19.3991C77.1124 19.2103 77.0951 18.9528 77.0951 18.6438V12.6695C77.2501 12.5837 77.4223 12.4978 77.6117 12.3948C77.8012 12.2918 78.025 12.2232 78.2661 12.1545C78.5072 12.0858 78.7999 12.0171 79.1099 11.9656C79.4199 11.9141 79.7815 11.897 80.1775 11.897C80.8836 11.897 81.4863 12 82.0029 12.1888C82.5195 12.3777 82.8983 12.618 83.1566 12.8927V19.2103C83.1566 19.7596 83.2255 20.2403 83.3461 20.6523C83.4666 21.0644 83.6905 21.3562 84.0349 21.5622C84.0349 21.6309 84.0349 21.6995 84.0349 21.8026V22.0086C84.0349 22.6266 83.9488 23.1588 83.7938 23.588C83.6388 24.0171 83.3977 24.3948 83.105 24.6867C82.8122 24.9785 82.4678 25.1845 82.0718 25.3219C81.6757 25.4592 81.228 25.5279 80.763 25.5279C80.1603 25.5279 79.6093 25.3905 79.0927 25.1159C78.5761 24.8412 78.1972 24.4292 77.9389 23.8626C77.6634 23.8626 77.5256 24 77.5256 24.2575C77.5256 24.3433 77.5429 24.4463 77.5945 24.5322C77.6462 24.618 77.7151 24.721 77.8012 24.8068H77.8528Z" fill="url(#paint1_linear_3003_220)"/>
<path d="M86.6521 12.0686C87.1515 12.0686 87.5648 12.1544 87.9092 12.3089C88.2536 12.4634 88.5119 12.7038 88.7013 12.9956C88.598 13.1158 88.4947 13.2531 88.4086 13.4076C88.3225 13.5621 88.2364 13.7338 88.1675 13.8883C88.0986 14.0428 88.0469 14.1973 87.9953 14.3347C87.9436 14.472 87.9264 14.5922 87.9264 14.6608C87.9264 14.7638 87.9608 14.8497 88.0297 14.9184C88.0986 14.987 88.2191 15.0385 88.3741 15.0385C88.5291 14.4377 88.753 13.9398 89.0285 13.545C89.304 13.1501 89.6312 12.8239 89.9928 12.5836C90.3544 12.3432 90.7333 12.1716 91.1638 12.0686C91.5943 11.9656 92.0076 11.9141 92.4381 11.9141C92.7825 11.9141 93.1097 11.9312 93.4024 11.9827C93.6952 12.0342 93.9535 12.0857 94.1945 12.1544C94.4356 12.2231 94.6423 12.3089 94.8145 12.3947C94.9867 12.4806 95.1416 12.5836 95.2622 12.6694C95.3999 13.0128 95.486 13.3733 95.5377 13.751C95.5894 14.1287 95.6238 14.5063 95.6238 14.8669C95.6238 15.5192 95.5722 16.0686 95.4516 16.4978C95.3311 16.9269 95.2105 17.2875 95.0728 17.5793C94.935 17.648 94.78 17.7166 94.5906 17.7681C94.4012 17.8196 94.1773 17.8883 93.9535 17.9398C93.7296 17.9913 93.4713 18.0257 93.213 18.06C92.9547 18.0943 92.6964 18.0943 92.4553 18.0943C92.1798 18.0943 91.9559 18.0943 91.7493 18.0772C91.5426 18.06 91.3532 18.0428 91.181 18.0085C91.0088 17.9741 90.8538 17.9398 90.7161 17.9055C90.5783 17.8711 90.4233 17.8368 90.2856 17.8025C90.2167 17.8711 90.1822 17.957 90.1822 18.0772C90.1822 18.1973 90.2511 18.2832 90.4061 18.3518C90.5611 18.4205 90.8194 18.4892 91.2154 18.5578V24.6351C90.9399 24.8068 90.6644 24.9613 90.3717 25.0643C90.0789 25.1673 89.8034 25.2531 89.5451 25.3218C89.2868 25.3905 89.0113 25.4248 88.7702 25.442C88.5291 25.4591 88.288 25.4763 88.0814 25.4763C87.6337 25.4763 87.2031 25.442 86.8071 25.3561C86.411 25.2703 86.0666 25.1501 85.7739 24.9613C85.4811 24.7724 85.24 24.5664 85.0678 24.3089C84.8956 24.0514 84.8095 23.7252 84.8095 23.3475V17.1158C84.5685 16.7724 84.379 16.3947 84.2757 15.9656C84.1724 15.5364 84.1035 15.09 84.1035 14.6265C84.1035 14.2317 84.1552 13.8196 84.2757 13.339C84.3963 12.8583 84.5685 12.4634 84.8095 12.0857H86.6693L86.6521 12.0686Z" fill="url(#paint2_linear_3003_220)"/>
<path d="M107.712 16.6009C107.712 16.3777 107.678 16.2404 107.626 16.1717C107.575 16.1031 107.489 16.0687 107.385 16.0687C107.282 16.0687 107.196 16.1031 107.11 16.1717C107.11 16.4121 107.11 16.6524 107.075 16.9099C107.041 17.1674 107.006 17.4078 106.955 17.6138C106.696 17.734 106.335 17.837 105.887 17.9228C105.439 18.0086 104.957 18.0602 104.441 18.0602C104.165 18.0602 103.941 18.0602 103.735 18.043C103.528 18.0258 103.339 18.0087 103.166 17.9743C102.994 17.94 102.839 17.9056 102.701 17.8713C102.564 17.837 102.409 17.8026 102.271 17.7683C102.202 17.837 102.168 17.9228 102.168 18.043C102.168 18.1632 102.236 18.249 102.391 18.3177C102.546 18.3863 102.805 18.455 103.201 18.5237V24.6009C102.925 24.7726 102.65 24.9271 102.357 25.0301C102.064 25.1331 101.789 25.219 101.53 25.2876C101.272 25.3563 100.997 25.3906 100.756 25.4078C100.514 25.425 100.273 25.4421 100.067 25.4421C99.619 25.4421 99.1885 25.4078 98.7924 25.322C98.3964 25.2361 98.052 25.1159 97.7592 24.9271C97.4665 24.7383 97.2254 24.5323 97.0532 24.2747C96.881 24.0172 96.7949 23.6911 96.7949 23.3134V17.0816C96.5538 16.7383 96.3644 16.3606 96.2611 15.9314C96.1578 15.5022 96.0889 15.0559 96.0889 14.5923C96.0889 14.1975 96.1405 13.7855 96.2611 13.3048C96.3816 12.8241 96.5538 12.4293 96.7949 12.0516H98.6547C99.1541 12.0516 99.5673 12.1374 99.9117 12.2919C100.256 12.4464 100.514 12.6868 100.704 12.9786C100.601 13.0988 100.497 13.2361 100.411 13.3906C100.325 13.5451 100.239 13.7168 100.17 13.8713C100.101 14.0258 100.05 14.1803 99.9978 14.3177C99.9462 14.455 99.929 14.5752 99.929 14.6438C99.929 14.7468 99.9634 14.8327 100.032 14.9014C100.101 14.97 100.222 15.0215 100.377 15.0215C100.532 14.4378 100.756 13.94 101.031 13.5451C101.307 13.1503 101.634 12.8241 101.995 12.5838C102.357 12.3434 102.736 12.1546 103.166 12.0516C103.597 11.9486 104.01 11.8971 104.441 11.8971C105.061 11.8971 105.629 12.0001 106.163 12.2232C106.696 12.4464 107.144 12.7726 107.506 13.2018C107.506 12.2404 107.644 11.4164 107.919 10.7468C108.195 10.0773 108.556 9.52796 109.038 9.11595C109.521 8.70393 110.054 8.39492 110.692 8.20608C111.329 8.01723 112 7.9314 112.741 7.9314C113.292 7.9314 113.808 7.9829 114.273 8.06874C114.738 8.15457 115.152 8.27474 115.513 8.41208C115.875 8.54942 116.185 8.70393 116.443 8.8756C116.701 9.04728 116.908 9.21895 117.063 9.37346C117.097 9.47646 117.115 9.57947 117.132 9.69964C117.149 9.81981 117.166 9.93998 117.166 10.043C117.166 10.146 117.166 10.2662 117.166 10.352V10.5752C117.166 11.0215 117.132 11.4335 117.08 11.7769C117.029 12.1202 116.925 12.4636 116.805 12.7726C116.546 12.8756 116.219 12.9443 115.823 13.0129C115.427 13.0816 114.962 13.0988 114.463 13.0988C114.239 13.0988 113.998 13.0988 113.757 13.0816C113.516 13.0644 113.292 13.0473 113.068 13.0129C112.844 12.9786 112.655 12.9614 112.465 12.9271C112.276 12.8928 112.121 12.8756 112.018 12.8413C112 12.8584 111.966 12.8928 111.949 12.9271C111.931 12.9614 111.931 13.0129 111.931 13.0816C111.931 13.219 112.121 13.3391 112.517 13.4593C112.913 13.5795 113.533 13.631 114.411 13.631C114.928 13.631 115.341 13.631 115.685 13.5966C116.03 13.5623 116.305 13.528 116.546 13.4936C116.581 13.5623 116.615 13.6653 116.633 13.8026C116.65 13.94 116.684 14.0945 116.719 14.2662C116.753 14.4378 116.753 14.6095 116.77 14.7983C116.788 14.9872 116.788 15.1417 116.788 15.2962C116.788 15.7082 116.753 16.0516 116.684 16.3434C116.615 16.6353 116.512 16.8928 116.374 17.1159H114.136V24.6524C113.86 24.8241 113.585 24.9786 113.292 25.0816C112.999 25.1846 112.724 25.2705 112.465 25.3391C112.207 25.4078 111.931 25.4421 111.69 25.4593C111.449 25.4765 111.208 25.4936 111.002 25.4936C110.554 25.4936 110.123 25.4593 109.727 25.3735C109.331 25.2876 108.987 25.1674 108.694 24.9786C108.401 24.7898 108.16 24.5838 107.988 24.3262C107.816 24.0687 107.73 23.7426 107.73 23.3649V16.6353L107.712 16.6009Z" fill="url(#paint3_linear_3003_220)"/>
<path d="M124.106 25.6652C123.004 25.6652 121.988 25.5107 121.093 25.1845C120.197 24.8583 119.422 24.4119 118.785 23.8111C118.148 23.2102 117.666 22.472 117.321 21.6137C116.977 20.7553 116.805 19.7768 116.805 18.6952C116.805 17.5622 116.994 16.5493 117.356 15.6738C117.717 14.7982 118.217 14.0772 118.854 13.4763C119.491 12.8755 120.214 12.4463 121.041 12.1373C121.867 11.8283 122.746 11.6909 123.676 11.6909C124.657 11.6909 125.535 11.8283 126.327 12.1201C127.12 12.4119 127.791 12.8068 128.342 13.3047C128.893 13.8025 129.324 14.3862 129.616 15.0557C129.909 15.7253 130.064 16.4463 130.064 17.2016C130.064 17.9227 129.944 18.5407 129.685 19.0557C129.427 19.5707 129.083 19.9999 128.618 20.3261C128.153 20.6523 127.619 20.9098 126.999 21.0643C126.379 21.2188 125.708 21.3047 124.967 21.3047C124.416 21.3047 123.882 21.236 123.366 21.1158C122.849 20.9956 122.418 20.8068 122.04 20.6008C122.005 20.6351 121.971 20.6695 121.954 20.721C121.936 20.7725 121.936 20.824 121.936 20.8583C121.936 20.9785 122.022 21.0986 122.212 21.2188C122.401 21.339 122.625 21.442 122.901 21.5278C123.176 21.6137 123.503 21.6995 123.865 21.751C124.227 21.8025 124.588 21.8368 124.95 21.8368C125.449 21.8368 125.914 21.8025 126.327 21.7338C126.741 21.6652 127.102 21.5793 127.447 21.4763C127.791 21.3733 128.067 21.2703 128.308 21.1501C128.549 21.03 128.755 20.9098 128.91 20.8068C129.014 20.8926 129.1 21.03 129.186 21.2016C129.272 21.3733 129.324 21.5622 129.393 21.7853C129.462 22.0085 129.496 22.2145 129.513 22.4377C129.53 22.6609 129.548 22.8669 129.548 23.0557C129.548 23.2446 129.548 23.4162 129.513 23.5879C129.479 23.7596 129.462 23.8969 129.427 24.0171C129.169 24.2403 128.876 24.4463 128.583 24.6351C128.291 24.824 127.912 25.0128 127.498 25.1501C127.085 25.2875 126.586 25.4248 126.035 25.5107C125.484 25.5965 124.829 25.648 124.072 25.648L124.106 25.6652ZM123.951 17.4763C124.158 17.4763 124.313 17.442 124.399 17.3562C124.485 17.2703 124.554 17.1673 124.554 17.03C124.554 16.8755 124.502 16.7553 124.382 16.6866C124.261 16.618 124.123 16.5836 123.968 16.5836C123.744 16.5836 123.555 16.6523 123.434 16.7725C123.314 16.8926 123.211 17.0643 123.193 17.2703C123.279 17.3218 123.383 17.3733 123.503 17.4077C123.624 17.442 123.779 17.4763 123.968 17.4763H123.951Z" fill="url(#paint4_linear_3003_220)"/>
<path d="M137.469 25.6653C136.401 25.6653 135.437 25.4936 134.593 25.1503C133.749 24.807 133.026 24.3263 132.423 23.7082C131.821 23.0902 131.373 22.3349 131.046 21.4593C130.718 20.5838 130.563 19.6052 130.563 18.5237C130.563 17.3735 130.753 16.3606 131.149 15.5022C131.545 14.6439 132.044 13.9228 132.699 13.3563C133.353 12.7898 134.076 12.3606 134.886 12.0859C135.695 11.8112 136.556 11.6567 137.434 11.6567C138.244 11.6567 139.019 11.7597 139.725 11.9658C140.431 12.1718 141.051 12.4808 141.584 12.8756C142.118 13.2705 142.532 13.7512 142.824 14.3177C143.117 14.8842 143.272 15.5366 143.272 16.2748C143.272 16.7726 143.186 17.219 143.031 17.631C142.876 18.043 142.635 18.3864 142.342 18.6782C142.049 18.97 141.705 19.1932 141.292 19.3649C140.878 19.5366 140.431 19.6052 139.931 19.6052C139.518 19.6052 139.139 19.5537 138.795 19.4336C138.45 19.3134 138.158 19.1589 137.899 18.9529C137.641 18.7469 137.434 18.5065 137.279 18.2147C137.124 17.9228 137.004 17.6138 136.969 17.2705C136.814 17.2705 136.694 17.3048 136.591 17.3563C136.487 17.4078 136.436 17.5108 136.436 17.6653C136.436 17.9228 136.504 18.1975 136.659 18.4894C136.814 18.7812 137.021 19.0559 137.314 19.2962C137.607 19.5366 137.951 19.7426 138.364 19.9143C138.777 20.0859 139.277 20.1546 139.828 20.1546C140.413 20.1546 140.913 20.0859 141.309 19.9658C141.705 19.8456 142.032 19.6911 142.29 19.5194C142.463 19.7769 142.6 20.0859 142.721 20.4636C142.841 20.8413 142.893 21.2705 142.893 21.7855C142.893 22.249 142.79 22.7125 142.566 23.1761C142.342 23.6396 142.015 24.0516 141.55 24.4293C141.085 24.807 140.534 25.0988 139.862 25.3391C139.191 25.5795 138.381 25.6825 137.452 25.6825L137.469 25.6653Z" fill="url(#paint5_linear_3003_220)"/>
<path d="M145.166 17.6481H145.924C146.13 17.6481 146.285 17.6138 146.388 17.5451C146.492 17.4764 146.526 17.3734 146.526 17.2532C146.526 17.2017 146.526 17.1502 146.509 17.1159H143.788C143.702 16.8241 143.633 16.4979 143.582 16.1545C143.53 15.8112 143.513 15.4507 143.513 15.0902C143.513 14.8498 143.513 14.5923 143.547 14.2833C143.582 13.9743 143.616 13.7339 143.668 13.5279C144.012 13.3219 144.339 13.0987 144.684 12.8412C145.028 12.5837 145.321 12.3777 145.579 12.1889C145.648 12.0172 145.734 11.794 145.837 11.5193C145.941 11.2447 146.027 10.9528 146.13 10.661C146.233 10.3691 146.32 10.0773 146.406 9.8026C146.492 9.52793 146.578 9.28758 146.63 9.09874C146.888 9.03007 147.232 8.97857 147.663 8.92707C148.093 8.87557 148.524 8.8584 148.971 8.8584C149.316 8.8584 149.678 8.87557 150.022 8.92707C150.366 8.97857 150.762 9.03007 151.176 9.11591V12.0859H153.277C153.518 12.4464 153.69 12.8412 153.81 13.2704C153.931 13.6996 153.983 14.146 153.983 14.5923C153.983 15.0043 153.931 15.4335 153.81 15.9142C153.69 16.3949 153.518 16.7726 153.277 17.1159H151.537V18.9528C151.537 19.5022 151.658 19.9142 151.882 20.1374C152.106 20.3605 152.433 20.4979 152.846 20.4979H153.363C153.432 20.7382 153.483 20.9957 153.535 21.2704C153.587 21.5451 153.621 21.8198 153.621 22.0945C153.621 23.2103 153.277 24.0687 152.571 24.6696C151.864 25.2704 150.866 25.5451 149.557 25.5451C148.903 25.5451 148.3 25.4593 147.766 25.2704C147.232 25.0816 146.767 24.8241 146.371 24.4636C145.975 24.103 145.682 23.6395 145.476 23.1073C145.269 22.5751 145.166 21.9228 145.166 21.1674V17.6653V17.6481Z" fill="url(#paint6_linear_3003_220)"/>
<path d="M55.4317 31.9143C55.1045 31.9143 54.7773 31.9658 54.4501 32.0173C54.1229 32.0688 53.8302 32.1374 53.5891 32.2061C53.348 32.2748 53.1242 32.3778 52.9692 32.4636C52.8142 32.5495 52.7281 32.6696 52.7281 32.7898C52.7281 32.8413 52.7281 32.8928 52.7797 32.9615C52.8314 33.0301 52.8658 33.0645 52.9175 33.116C53.2447 32.9615 53.658 32.807 54.1229 32.6696C54.5879 32.5323 55.1389 32.4636 55.7416 32.4636C56.6198 32.4636 57.4292 32.6181 58.1697 32.9443C58.9101 33.2705 59.5473 33.6997 60.0983 34.2834C60.6494 34.8671 61.0626 35.5538 61.3726 36.3778C61.6826 37.2018 61.8203 38.0945 61.8203 39.0902C61.8203 40.3263 61.6309 41.3907 61.2693 42.2834C60.9077 43.1761 60.3911 43.8971 59.7539 44.4636C59.1168 45.0301 58.3419 45.4422 57.4636 45.7168C56.5854 45.9915 55.6383 46.1117 54.6223 46.1117C54.209 46.1117 53.7785 46.0945 53.348 46.043C52.9175 45.9915 52.487 45.94 52.0737 45.837C51.6604 45.734 51.2644 45.6138 50.9027 45.4593C50.5411 45.3048 50.2139 45.116 49.9384 44.8928C49.6629 44.6696 49.439 44.395 49.2841 44.1031C49.1291 43.8113 49.043 43.4507 49.043 43.0559V29.2362C49.4218 29.013 49.8695 28.8413 50.4206 28.6868C50.9716 28.5323 51.5227 28.4636 52.1082 28.4636C52.5214 28.4636 52.9347 28.5151 53.348 28.601C53.7613 28.6868 54.1057 28.8241 54.4157 29.013C54.7256 29.2018 54.9839 29.4422 55.1734 29.7512C55.3628 30.0602 55.4661 30.4207 55.4661 30.8499V31.9314L55.4317 31.9143ZM55.0528 38.8327C55.0528 39.1074 55.0528 39.3306 55.0528 39.5194C55.0528 39.7083 55.0528 39.8799 55.0356 40.0173C55.0184 40.1546 55.0184 40.292 55.0012 40.395C54.9839 40.498 54.9667 40.6353 54.9667 40.7555C55.0011 40.7898 55.0356 40.8241 55.0872 40.8413C55.1389 40.8585 55.1906 40.8756 55.2595 40.8756C55.3456 40.8756 55.4144 40.8585 55.4661 40.807C55.5178 40.7555 55.5694 40.6525 55.6211 40.498C55.6727 40.3435 55.69 40.1374 55.7072 39.8799C55.7244 39.6224 55.7244 39.3306 55.7244 38.9529V37.7168C55.7244 37.5108 55.69 37.3563 55.6383 37.2705C55.5866 37.1847 55.4833 37.1331 55.3283 37.1331C55.2078 37.1331 55.1217 37.1675 55.07 37.219V38.8499L55.0528 38.8327Z" fill="#231F20"/>
<path d="M64.6277 32.4636C65.1271 32.4636 65.5404 32.5494 65.8848 32.7039C66.2292 32.8584 66.4875 33.0988 66.6769 33.3906C66.5736 33.5108 66.4702 33.6481 66.3841 33.8026C66.298 33.9572 66.2119 34.1288 66.1431 34.2833C66.0742 34.4378 66.0225 34.5923 65.9709 34.7297C65.9192 34.867 65.902 34.9872 65.902 35.0559C65.902 35.1589 65.9364 35.2447 66.0053 35.3134C66.0742 35.382 66.1947 35.4335 66.3497 35.4335C66.5047 34.8327 66.7285 34.3348 67.0041 33.94C67.2796 33.5451 67.6068 33.219 67.9684 32.9786C68.33 32.7383 68.7089 32.5666 69.1394 32.4636C69.5699 32.3606 69.9832 32.3091 70.4137 32.3091C70.7581 32.3091 71.0853 32.3263 71.378 32.3778C71.6707 32.4293 71.929 32.4808 72.1701 32.5494C72.4112 32.6181 72.6178 32.7039 72.7901 32.7898C72.9623 32.8756 73.1172 32.9786 73.2378 33.0644C73.3755 33.4078 73.4616 33.7683 73.5133 34.146C73.565 34.5237 73.5994 34.9014 73.5994 35.2619C73.5994 35.9142 73.5477 36.4636 73.4272 36.8928C73.3067 37.322 73.1861 37.6825 73.0483 37.9743C72.9106 38.043 72.7556 38.1117 72.5662 38.1632C72.3768 38.2147 72.1529 38.2833 71.929 38.3348C71.7052 38.3863 71.4469 38.4207 71.1886 38.455C70.9303 38.4893 70.672 38.4893 70.4309 38.4893C70.1554 38.4893 69.9315 38.4893 69.7249 38.4722C69.5182 38.455 69.3288 38.4378 69.1566 38.4035C68.9844 38.3692 68.8294 38.3348 68.6916 38.3005C68.5539 38.2662 68.3989 38.2318 68.2611 38.1975C68.1923 38.2662 68.1578 38.352 68.1578 38.4722C68.1578 38.5923 68.2267 38.6782 68.3817 38.7469C68.5367 38.8155 68.795 38.8842 69.191 38.9529V45.0301C68.9155 45.2018 68.64 45.3563 68.3472 45.4593C68.0545 45.5623 67.779 45.6481 67.5207 45.7168C67.2624 45.7855 66.9868 45.8198 66.7458 45.837C66.5047 45.8541 66.2636 45.8713 66.057 45.8713C65.6092 45.8713 65.1787 45.837 64.7827 45.7511C64.3866 45.6653 64.0422 45.5451 63.7495 45.3563C63.4567 45.1675 63.2156 44.9614 63.0434 44.7039C62.8712 44.4464 62.7851 44.1202 62.7851 43.7426V37.5108C62.544 37.1675 62.3546 36.7898 62.2513 36.3606C62.148 35.9314 62.0791 35.485 62.0791 35.0215C62.0791 34.6267 62.1308 34.2147 62.2513 33.734C62.3718 33.2533 62.544 32.8584 62.7851 32.4808H64.6449L64.6277 32.4636Z" fill="#231F20"/>
<path d="M81.107 46.0773C80.0049 46.0773 78.9889 45.9228 78.0935 45.5966C77.198 45.2704 76.4231 44.8241 75.786 44.2232C75.1488 43.6223 74.6667 42.8841 74.3223 42.0258C73.9779 41.1674 73.8057 40.1889 73.8057 39.1073C73.8057 37.9743 73.9951 36.9614 74.3567 36.0859C74.7183 35.2103 75.2177 34.4893 75.8549 33.8884C76.492 33.2876 77.2153 32.8584 78.0418 32.5494C78.8684 32.2404 79.7466 32.103 80.6765 32.103C81.6581 32.103 82.5363 32.2404 83.3284 32.5322C84.1205 32.8241 84.7921 33.2189 85.3432 33.7168C85.8942 34.2146 86.3247 34.7983 86.6175 35.4678C86.9102 36.1374 87.0652 36.8584 87.0652 37.6138C87.0652 38.3348 86.9447 38.9528 86.6864 39.4678C86.428 39.9829 86.0836 40.412 85.6187 40.7382C85.1538 41.0644 84.6199 41.3219 84 41.4764C83.3801 41.6309 82.7085 41.7168 81.968 41.7168C81.417 41.7168 80.8832 41.6481 80.3665 41.5279C79.8499 41.4077 79.4194 41.2189 79.0406 41.0129C79.0062 41.0472 78.9717 41.0816 78.9545 41.1331C78.9373 41.1846 78.9373 41.2361 78.9373 41.2704C78.9373 41.3906 79.0234 41.5108 79.2128 41.6309C79.4022 41.7511 79.6261 41.8541 79.9016 41.9399C80.1771 42.0258 80.5043 42.1116 80.8659 42.1631C81.2276 42.2146 81.5892 42.249 81.9508 42.249C82.4502 42.249 82.9151 42.2146 83.3284 42.1459C83.7417 42.0773 84.1033 41.9914 84.4477 41.8884C84.7921 41.7854 85.0677 41.6824 85.3087 41.5623C85.5498 41.4421 85.7565 41.3219 85.9114 41.2189C86.0148 41.3047 86.1009 41.4421 86.187 41.6138C86.2731 41.7854 86.3247 41.9743 86.3936 42.1974C86.4625 42.4206 86.4969 42.6266 86.5142 42.8498C86.5314 43.073 86.5486 43.279 86.5486 43.4678C86.5486 43.6567 86.5486 43.8283 86.5142 44C86.4797 44.1717 86.4625 44.309 86.428 44.4292C86.1697 44.6524 85.877 44.8584 85.5843 45.0472C85.2915 45.2361 84.9127 45.4249 84.4994 45.5623C84.0861 45.6996 83.5867 45.8369 83.0357 45.9228C82.4846 46.0086 81.8303 46.0601 81.0726 46.0601L81.107 46.0773ZM80.952 37.8884C81.1587 37.8884 81.3137 37.8541 81.3998 37.7683C81.4859 37.6824 81.5547 37.5794 81.5547 37.4421C81.5547 37.2876 81.5031 37.1674 81.3825 37.0987C81.262 37.0301 81.1242 36.9957 80.9693 36.9957C80.7454 36.9957 80.556 37.0644 80.4354 37.1846C80.3149 37.3047 80.2116 37.4764 80.1943 37.6824C80.2804 37.7339 80.3838 37.7854 80.5043 37.8198C80.6249 37.8541 80.7798 37.8884 80.9693 37.8884H80.952Z" fill="#231F20"/>
<path d="M94.8482 46.0773C93.7461 46.0773 92.7301 45.9228 91.8347 45.5966C90.9393 45.2704 90.1643 44.8241 89.5272 44.2232C88.8901 43.6223 88.4079 42.8841 88.0635 42.0258C87.7191 41.1674 87.5469 40.1889 87.5469 39.1073C87.5469 37.9743 87.7363 36.9614 88.0979 36.0859C88.4595 35.2103 88.9589 34.4893 89.5961 33.8884C90.2332 33.2876 90.9565 32.8584 91.783 32.5494C92.6096 32.2404 93.4878 32.103 94.4177 32.103C95.3993 32.103 96.2775 32.2404 97.0696 32.5322C97.8618 32.8241 98.5333 33.2189 99.0844 33.7168C99.6354 34.2146 100.066 34.7983 100.359 35.4678C100.651 36.1374 100.806 36.8584 100.806 37.6138C100.806 38.3348 100.686 38.9528 100.428 39.4678C100.169 39.9829 99.8249 40.412 99.3599 40.7382C98.895 41.0644 98.3611 41.3219 97.7412 41.4764C97.1213 41.6309 96.4497 41.7168 95.7092 41.7168C95.1582 41.7168 94.6244 41.6481 94.1078 41.5279C93.5912 41.4077 93.1607 41.2189 92.7818 41.0129C92.7474 41.0472 92.7129 41.0816 92.6957 41.1331C92.6785 41.1846 92.6785 41.2361 92.6785 41.2704C92.6785 41.3906 92.7646 41.5108 92.954 41.6309C93.1434 41.7511 93.3673 41.8541 93.6428 41.9399C93.9183 42.0258 94.2455 42.1116 94.6071 42.1631C94.9688 42.2146 95.3304 42.249 95.692 42.249C96.1914 42.249 96.6563 42.2146 97.0696 42.1459C97.4829 42.0773 97.8445 41.9914 98.1889 41.8884C98.5333 41.7854 98.8089 41.6824 99.05 41.5623C99.291 41.4421 99.4977 41.3219 99.6527 41.2189C99.756 41.3047 99.8421 41.4421 99.9282 41.6138C100.014 41.7854 100.066 41.9743 100.135 42.1974C100.204 42.4206 100.238 42.6266 100.255 42.8498C100.273 43.073 100.29 43.279 100.29 43.4678C100.29 43.6567 100.29 43.8283 100.255 44C100.221 44.1717 100.204 44.309 100.169 44.4292C99.911 44.6524 99.6182 44.8584 99.3255 45.0472C99.0327 45.2361 98.6539 45.4249 98.2406 45.5623C97.8273 45.6996 97.3279 45.8369 96.7769 45.9228C96.2258 46.0086 95.5715 46.0601 94.8138 46.0601L94.8482 46.0773ZM94.6932 37.8884C94.8999 37.8884 95.0549 37.8541 95.141 37.7683C95.2271 37.6824 95.296 37.5794 95.296 37.4421C95.296 37.2876 95.2443 37.1674 95.1238 37.0987C95.0032 37.0301 94.8654 36.9957 94.7105 36.9957C94.4866 36.9957 94.2972 37.0644 94.1766 37.1846C94.0561 37.3047 93.9528 37.4764 93.9356 37.6824C94.0217 37.7339 94.125 37.7854 94.2455 37.8198C94.3661 37.8541 94.521 37.8884 94.7105 37.8884H94.6932Z" fill="#231F20"/>
<path d="M114.204 39.6052C114.204 40.1545 114.273 40.6352 114.394 41.0472C114.514 41.4593 114.738 41.7511 115.082 41.9571C115.082 42.0258 115.082 42.0944 115.082 42.1975V42.4035C115.082 43.0215 114.979 43.5537 114.79 43.9829C114.6 44.412 114.342 44.7897 114.032 45.0816C113.722 45.3734 113.36 45.5794 112.964 45.7168C112.568 45.8541 112.155 45.9228 111.742 45.9228C111.449 45.9228 111.156 45.8884 110.881 45.8198C110.605 45.7511 110.33 45.6481 110.089 45.5108C109.847 45.3734 109.624 45.2017 109.417 44.9957C109.21 44.7897 109.055 44.5322 108.952 44.2575C108.677 44.2575 108.539 44.3949 108.539 44.6524C108.539 44.7726 108.59 44.8927 108.677 45.0644C108.763 45.2361 108.9 45.3734 109.055 45.4936C108.814 45.6309 108.539 45.7339 108.194 45.8026C107.85 45.8713 107.523 45.9056 107.196 45.9056C106.713 45.9056 106.248 45.8541 105.766 45.7511C105.284 45.6481 104.836 45.4764 104.389 45.2532C103.941 45.0301 103.545 44.7211 103.166 44.3777C102.787 44.0344 102.46 43.588 102.185 43.0902C101.909 42.5923 101.685 42.0086 101.53 41.3562C101.375 40.7039 101.289 39.9657 101.289 39.1245C101.289 38.0601 101.444 37.1331 101.771 36.309C102.098 35.485 102.529 34.7983 103.08 34.2318C103.631 33.6653 104.285 33.2361 105.043 32.9442C105.801 32.6524 106.61 32.4979 107.488 32.4979C108.108 32.4979 108.642 32.5666 109.107 32.6867C109.572 32.8069 109.968 32.9442 110.278 33.1159C110.312 33.0816 110.347 33.0301 110.381 32.9786C110.416 32.9271 110.416 32.8756 110.416 32.8412C110.416 32.7039 110.33 32.6009 110.175 32.4979C110.02 32.3949 109.796 32.309 109.538 32.2232C109.279 32.1374 109.004 32.0859 108.694 32.0344C108.384 31.9829 108.091 31.9657 107.816 31.9657C107.816 31.8112 107.816 31.6395 107.798 31.4678C107.781 31.2962 107.764 31.1073 107.729 30.9356C107.695 30.764 107.661 30.5923 107.626 30.4206C107.592 30.249 107.54 30.1116 107.488 29.9914C107.678 29.7683 107.884 29.5794 108.091 29.3906C108.298 29.2017 108.556 29.0472 108.831 28.9099C109.107 28.7726 109.4 28.6696 109.744 28.6009C110.089 28.5322 110.467 28.4807 110.898 28.4807C111.363 28.4807 111.811 28.5494 112.207 28.6867C112.603 28.8241 112.964 29.0301 113.257 29.3047C113.55 29.5794 113.791 29.9056 113.946 30.3005C114.101 30.6953 114.187 31.1417 114.187 31.6567V39.6567L114.204 39.6052ZM108.263 39.0387C108.263 38.764 108.263 38.5408 108.263 38.352C108.263 38.1631 108.263 37.9914 108.28 37.8541C108.298 37.7168 108.298 37.5794 108.315 37.4764C108.332 37.3734 108.349 37.2361 108.349 37.1159C108.315 37.0816 108.28 37.0472 108.229 37.0301C108.177 37.0129 108.125 36.9957 108.057 36.9957C107.97 36.9957 107.902 37.0129 107.85 37.0644C107.798 37.1159 107.747 37.2189 107.695 37.3734C107.643 37.5279 107.626 37.7339 107.609 37.9914C107.592 38.249 107.592 38.5408 107.592 38.9185V40.1545C107.592 40.3605 107.626 40.515 107.678 40.6009C107.729 40.6867 107.833 40.7382 107.988 40.7382C108.108 40.7382 108.194 40.7039 108.246 40.6524V39.0215L108.263 39.0387Z" fill="#231F20"/>
<path d="M122.763 36.1716C122.625 36.1716 122.504 36.1716 122.384 36.1716C122.263 36.1716 122.16 36.1888 122.057 36.2231C121.953 36.2574 121.884 36.2918 121.833 36.3433C121.781 36.3948 121.747 36.4806 121.747 36.5836V36.6523C121.747 36.6523 121.747 36.7038 121.747 36.721C121.884 36.721 122.005 36.721 122.091 36.721H122.384C122.797 36.721 123.21 36.7553 123.641 36.8068C124.071 36.8583 124.485 36.9613 124.881 37.0986C125.277 37.236 125.656 37.4248 126.017 37.648C126.379 37.8712 126.689 38.1459 126.947 38.472C127.206 38.7982 127.412 39.1759 127.567 39.6051C127.722 40.0343 127.791 40.5321 127.791 41.0986C127.791 41.9398 127.636 42.678 127.343 43.2961C127.051 43.9141 126.603 44.4463 126.052 44.8583C125.501 45.2703 124.829 45.5793 124.037 45.7853C123.245 45.9914 122.384 46.0944 121.42 46.0944C120.524 46.0944 119.715 46.0257 118.974 45.8712C118.234 45.7167 117.597 45.4935 117.08 45.1845C116.563 44.8755 116.15 44.4978 115.857 44.0343C115.565 43.5707 115.427 43.0214 115.427 42.3862C115.427 42.1459 115.461 41.9227 115.513 41.7167C115.565 41.5107 115.651 41.3047 115.737 41.133C115.823 40.9613 115.926 40.8068 116.047 40.6695C116.167 40.5321 116.271 40.4291 116.391 40.3604C116.581 40.515 116.839 40.6866 117.149 40.8583C117.459 41.03 117.821 41.1673 118.217 41.3047C118.613 41.442 119.06 41.545 119.525 41.6137C119.99 41.6823 120.49 41.7338 121.023 41.7338C121.265 41.7338 121.42 41.6995 121.488 41.6308C121.557 41.5622 121.592 41.4763 121.592 41.3562C121.592 41.2875 121.592 41.2188 121.557 41.1673C121.471 41.1673 121.402 41.1673 121.351 41.1673H121.213C120.421 41.1673 119.663 41.0815 118.957 40.927C118.251 40.7725 117.631 40.515 117.097 40.1544C116.563 39.7939 116.133 39.3647 115.823 38.8154C115.513 38.266 115.341 37.6137 115.341 36.8583C115.341 36.2231 115.479 35.6051 115.737 35.0386C115.995 34.472 116.391 33.957 116.908 33.5107C117.424 33.0643 118.096 32.721 118.888 32.4635C119.68 32.2059 120.61 32.0686 121.678 32.0686C122.212 32.0686 122.711 32.1029 123.193 32.1544C123.675 32.2059 124.14 32.2918 124.554 32.3948C124.967 32.4978 125.363 32.618 125.725 32.7725C126.086 32.927 126.396 33.0643 126.672 33.2188C126.758 33.3905 126.809 33.6137 126.844 33.9055C126.878 34.1974 126.896 34.4549 126.896 34.6952C126.896 35.2446 126.809 35.7081 126.654 36.0858C126.499 36.4635 126.31 36.7553 126.086 36.9613C125.897 36.8583 125.69 36.7553 125.449 36.6695C125.208 36.5836 124.932 36.4978 124.657 36.4291C124.381 36.3604 124.071 36.2918 123.744 36.2574C123.417 36.2231 123.09 36.1888 122.763 36.1888V36.1716Z" fill="#231F20"/>
<path d="M49.6808 10.4379C49.6636 7.50224 49.9219 4.22327 49.2331 1.40782C48.8026 0.394942 47.4422 1.40782 46.8567 1.87134L43.1199 4.77262C40.6058 3.72541 37.1789 3.82842 34.7509 4.77262C33.27 3.57091 31.8407 2.42069 30.2909 1.30481C29.9981 1.0988 29.4987 0.909964 29.1371 0.978633C28.3794 1.13314 28.3794 4.41211 28.3106 5.13314V10.4207C27.2257 12.4808 26.778 14.6267 26.7952 17.0473C23.2478 13.631 18.1679 12.8413 13.7939 14.9872C10.5221 16.5838 8.26627 19.6567 7.71522 23.2276C4.94278 19.5537 4.18509 14.2834 6.02765 10.1117C7.16418 7.53657 9.38558 5.59666 12.2097 5.11597C15.9292 4.49795 19.3561 6.74687 20.7165 10.1288C21.3536 11.6739 23.3856 12.0344 24.5738 11.0559C25.452 10.3177 25.6586 9.15031 25.2798 8.12026C24.4532 5.87134 22.9551 4.05159 21.0609 2.59237C14.7755 -2.24883 5.78657 -0.0170746 2.04979 6.91855C-1.35981 13.2533 -0.292156 20.6181 3.6857 26.4207C4.51227 27.6224 5.28718 28.704 6.32039 29.7168L15.051 38.1975L24.8149 47.6052C25.0215 47.7941 25.3831 47.9829 25.5725 47.9829C25.7447 47.9829 26.1064 47.8113 26.2613 47.6567L33.4766 40.6868L43.757 30.7297C46.0818 28.4808 47.9588 25.9743 49.3536 23.0559C49.8013 22.1117 50.0768 21.2018 50.3696 20.2061C51.3339 16.9271 51.1273 13.5452 49.6636 10.4207L49.6808 10.4379ZM34.3893 16.0516C33.2183 16.0516 32.2712 15.1074 32.2712 13.94C32.2712 12.7726 33.2183 11.8284 34.3893 11.8284C35.5602 11.8284 36.5074 12.7726 36.5074 13.94C36.5074 15.1074 35.5602 16.0516 34.3893 16.0516ZM43.6021 16.0516C42.4311 16.0516 41.484 15.1074 41.484 13.94C41.484 12.7726 42.4311 11.8284 43.6021 11.8284C44.773 11.8284 45.7201 12.7726 45.7201 13.94C45.7201 15.1074 44.773 16.0516 43.6021 16.0516Z" fill="url(#paint7_linear_3003_220)"/>
</g>
<defs>
<linearGradient id="paint0_linear_3003_220" x1="55.0869" y1="25.545" x2="71.1626" y2="11.2667" gradientUnits="userSpaceOnUse">
<stop stop-color="#F87537"/>
<stop offset="1" stop-color="#FBA81F"/>
</linearGradient>
<linearGradient id="paint1_linear_3003_220" x1="69.8799" y1="25.5279" x2="83.5011" y2="11.383" gradientUnits="userSpaceOnUse">
<stop stop-color="#F87537"/>
<stop offset="1" stop-color="#FBA81F"/>
</linearGradient>
<linearGradient id="paint2_linear_3003_220" x1="84.1035" y1="25.4763" x2="97.4872" y2="14.1077" gradientUnits="userSpaceOnUse">
<stop stop-color="#F87537"/>
<stop offset="1" stop-color="#FBA81F"/>
</linearGradient>
<linearGradient id="paint3_linear_3003_220" x1="96.0889" y1="25.4936" x2="113.363" y2="4.76217" gradientUnits="userSpaceOnUse">
<stop stop-color="#F87537"/>
<stop offset="1" stop-color="#FBA81F"/>
</linearGradient>
<linearGradient id="paint4_linear_3003_220" x1="116.805" y1="25.6652" x2="130.76" y2="12.4239" gradientUnits="userSpaceOnUse">
<stop stop-color="#F87537"/>
<stop offset="1" stop-color="#FBA81F"/>
</linearGradient>
<linearGradient id="paint5_linear_3003_220" x1="130.563" y1="25.6825" x2="144.521" y2="13.0356" gradientUnits="userSpaceOnUse">
<stop stop-color="#F87537"/>
<stop offset="1" stop-color="#FBA81F"/>
</linearGradient>
<linearGradient id="paint6_linear_3003_220" x1="143.513" y1="25.5451" x2="158.537" y2="16.118" gradientUnits="userSpaceOnUse">
<stop stop-color="#F87537"/>
<stop offset="1" stop-color="#FBA81F"/>
</linearGradient>
<linearGradient id="paint7_linear_3003_220" x1="0.00585937" y1="47.9829" x2="47.8993" y2="-2.87857" gradientUnits="userSpaceOnUse">
<stop stop-color="#F87537"/>
<stop offset="1" stop-color="#FBA81F"/>
</linearGradient>
<clipPath id="clip0_3003_220">
<rect width="154" height="48" fill="white"/>
</clipPath>
</defs>
</svg>
